<?xml version="1.0" encoding="UTF-8" standalone="no"?>
<svg
   width="32"
   height="32"
   version="1.1"
   id="svg2"
   sodipodi:docname="sunny.svg"
   inkscape:version="1.4.3 (0d15f75, 2025-12-25)"
   xmlns:inkscape="http://www.inkscape.org/namespaces/inkscape"
   xmlns:sodipodi="http://sodipodi.sourceforge.net/DTD/sodipodi-0.dtd"
   xmlns="http://www.w3.org/2000/svg"
   xmlns:svg="http://www.w3.org/2000/svg">
  <sodipodi:namedview
     id="namedview2"
     pagecolor="#ffffff"
     bordercolor="#000000"
     borderopacity="0.25"
     inkscape:showpageshadow="2"
     inkscape:pageopacity="0.0"
     inkscape:pagecheckerboard="0"
     inkscape:deskcolor="#d1d1d1"
     inkscape:zoom="26.59375"
     inkscape:cx="16.018801"
     inkscape:cy="16"
     inkscape:window-width="1920"
     inkscape:window-height="1111"
     inkscape:window-x="-9"
     inkscape:window-y="-9"
     inkscape:window-maximized="1"
     inkscape:current-layer="svg2" />
  <defs
     id="defs2">
    <linearGradient
       id="a"
       x1="0%"
       x2="100%"
       y1="0%"
       y2="100%">
      <stop
         offset="0%"
         stop-color="#FCD35C"
         id="stop1" />
      <stop
         offset="100%"
         stop-color="#FBBC04"
         id="stop2" />
    </linearGradient>
  </defs>
  <g
     fill="none"
     fill-rule="evenodd"
     id="g2">
    <circle
       cx="16"
       cy="16"
       r="14"
       fill="url(#a)"
       id="circle2" />
    <path
       stroke="#FBBC04"
       d="m17.125 2.085 1.595-.813c1.24-.633 2.739-.125 3.386 1.146l.832 1.635a2.57 2.57 0 0 0 1.82 1.378l1.748.32c1.36.248 2.287 1.577 2.093 3.002l-.249 1.832a2.74 2.74 0 0 0 .696 2.23l1.234 1.33a2.75 2.75 0 0 1 0 3.71l-1.234 1.33a2.74 2.74 0 0 0-.696 2.23l.25 1.832c.193 1.425-.734 2.754-2.094 3.002l-1.748.32a2.57 2.57 0 0 0-1.82 1.378l-.832 1.635c-.647 1.271-2.145 1.779-3.386 1.146l-1.595-.812a2.467 2.467 0 0 0-2.25 0l-1.595.812c-1.24.633-2.738.125-3.386-1.146l-.832-1.635a2.571 2.571 0 0 0-1.82-1.378l-1.748-.32c-1.36-.248-2.286-1.577-2.093-3.002l.249-1.832a2.741 2.741 0 0 0-.695-2.23l-1.235-1.33a2.75 2.75 0 0 1 0-3.71l1.235-1.33a2.74 2.74 0 0 0 .695-2.23L3.4 8.753c-.192-1.425.734-2.754 2.094-3.002l1.749-.32a2.57 2.57 0 0 0 1.82-1.378l.831-1.635C10.542 1.147 12.04.64 13.28 1.272l1.596.813c.709.36 1.54.36 2.249 0"
       opacity=".35"
       id="path2" />
  </g>
</svg>
