<?xml version="1.0" encoding="UTF-8" standalone="no"?>
<!-- Generator: Adobe Illustrator 22.0.1, SVG Export Plug-In . SVG Version: 6.00 Build 0)  -->

<svg
   version="1.1"
   id="Layer_1"
   x="0px"
   y="0px"
   viewBox="0 0 30 30"
   style="enable-background:new 0 0 30 30;"
   xml:space="preserve"
   sodipodi:docname="wi-cloudy.svg"
   inkscape:export-filename="wi-cloudy.png"
   inkscape:export-xdpi="76.800003"
   inkscape:export-ydpi="76.800003"
   inkscape:version="1.4.3 (0d15f75, 2025-12-25)"
   xmlns:inkscape="http://www.inkscape.org/namespaces/inkscape"
   xmlns:sodipodi="http://sodipodi.sourceforge.net/DTD/sodipodi-0.dtd"
   xmlns="http://www.w3.org/2000/svg"
   xmlns:svg="http://www.w3.org/2000/svg"><defs
   id="defs1" /><sodipodi:namedview
   id="namedview1"
   pagecolor="#000000"
   bordercolor="#000000"
   borderopacity="0.25"
   inkscape:showpageshadow="2"
   inkscape:pageopacity="0.0"
   inkscape:pagecheckerboard="0"
   inkscape:deskcolor="#d1d1d1"
   inkscape:zoom="28.366667"
   inkscape:cx="15"
   inkscape:cy="15"
   inkscape:window-width="1920"
   inkscape:window-height="1111"
   inkscape:window-x="-9"
   inkscape:window-y="-9"
   inkscape:window-maximized="1"
   inkscape:current-layer="Layer_1" />
<g
   id="g1"
   transform="matrix(1.1622468,0,0,1.1622468,-2.428254,-1.9394392)"><path
     style="fill:#ffffff"
     d="m 14.19,8.88 c -0.1,0.09 -0.08,0.16 0.07,0.21 0.43,0.19 0.79,0.37 1.08,0.55 0.11,0.03 0.19,0.02 0.22,-0.03 0.61,-0.57 1.31,-0.86 2.12,-0.86 0.81,0 1.5,0.27 2.1,0.81 0.59,0.54 0.92,1.21 0.99,2 l 0.09,0.64 h 1.42 c 0.65,0 1.21,0.23 1.68,0.7 0.47,0.47 0.7,1.02 0.7,1.66 0,0.6 -0.21,1.12 -0.62,1.57 -0.41,0.45 -0.92,0.7 -1.53,0.77 -0.1,0 -0.15,0.05 -0.15,0.16 v 1.13 c 0,0.11 0.05,0.16 0.15,0.16 1.01,-0.06 1.86,-0.46 2.55,-1.19 0.69,-0.73 1.04,-1.6 1.04,-2.6 0,-1.06 -0.37,-1.96 -1.12,-2.7 -0.75,-0.75 -1.65,-1.12 -2.7,-1.12 H 22.13 C 21.87,9.74 21.32,8.92 20.48,8.27 19.65,7.62 18.71,7.3 17.68,7.3 16.28,7.29 15.11,7.82 14.19,8.88 Z"
     id="path3" /><path
     id="path2"
     style="fill:#ffffff"
     d="m 12.199219,9.4609375 c -1.22,0 -2.2887503,0.3691406 -3.2187502,1.1191405 -0.93,0.74 -1.5212501,1.71086 -1.78125,2.88086 -0.97,0.22 -1.7589063,0.718281 -2.3789063,1.488281 -0.62,0.77 -0.9296875,1.66039 -0.9296875,2.65039 0,0.57 0.1098437,1.140157 0.3398438,1.660157 0.2299999,0.52 0.5301562,0.979375 0.9101562,1.359375 0.38,0.38 0.8491406,0.660625 1.3691406,0.890625 0.52,0.23 1.0703906,0.339843 1.6503906,0.339843 h 9.2695318 c 1.179999,0 2.179765,-0.42 3.009765,-1.25 0.83,-0.83 1.25,-1.829765 1.25,-3.009765 0,-1.17 -0.42,-2.17 -1.25,-3 -0.83,-0.83 -1.829766,-1.240235 -3.009765,-1.240235 h -0.269532 c -0.27,-1.14 -0.870781,-2.068828 -1.800781,-2.798828 -0.92,-0.7299998 -1.980156,-1.0898435 -3.160156,-1.0898435 z m -0.01953,1.4394535 c 0.939999,0 1.761171,0.309687 2.451171,0.929687 0.69,0.62 1.089454,1.40961 1.189453,2.34961 l 0.07031,0.490234 c 0,0.1 0.04844,0.15039 0.148437,0.15039 h 1.390626 c 0.779999,0 1.440234,0.280313 1.990234,0.820313 0.56,0.54 0.830078,1.198984 0.830078,1.958984 0,0.76 -0.280078,1.410938 -0.830078,1.960938 -0.55,0.55 -1.220235,0.820312 -1.990234,0.820312 H 8.1503906 c -0.78,0 -1.4502343,-0.280312 -1.9902344,-0.820312 -0.54,-0.54 -0.8203124,-1.200938 -0.8203124,-1.960938 -10e-8,-0.73 0.2509375,-1.358672 0.7109374,-1.888671 0.4900001,-0.53 1.0885938,-0.830625 1.8085938,-0.890626 L 8.3105469,14.75 c 0.11,0 0.1601562,-0.05039 0.1601562,-0.150391 l 0.068359,-0.419921 c 0.09,-0.93 0.4816406,-1.719844 1.1816406,-2.339844 0.7000003,-0.63 1.5189853,-0.939453 2.4589853,-0.939453 z" /></g>
</svg>
