<?xml version="1.0" encoding="UTF-8" standalone="no"?>
<!-- Generator: Adobe Illustrator 22.0.1, SVG Export Plug-In . SVG Version: 6.00 Build 0)  -->

<svg
   version="1.1"
   id="Layer_1"
   x="0px"
   y="0px"
   viewBox="0 0 30 30"
   style="enable-background:new 0 0 30 30;"
   xml:space="preserve"
   sodipodi:docname="wi-day-haze.svg"
   inkscape:export-filename="wi-day-haze.png"
   inkscape:export-xdpi="96"
   inkscape:export-ydpi="96"
   inkscape:version="1.4.3 (0d15f75, 2025-12-25)"
   xmlns:inkscape="http://www.inkscape.org/namespaces/inkscape"
   xmlns:sodipodi="http://sodipodi.sourceforge.net/DTD/sodipodi-0.dtd"
   xmlns="http://www.w3.org/2000/svg"
   xmlns:svg="http://www.w3.org/2000/svg"><defs
   id="defs1" /><sodipodi:namedview
   id="namedview1"
   pagecolor="#000000"
   bordercolor="#000000"
   borderopacity="0.25"
   inkscape:showpageshadow="2"
   inkscape:pageopacity="0.0"
   inkscape:pagecheckerboard="0"
   inkscape:deskcolor="#d1d1d1"
   inkscape:zoom="28.366667"
   inkscape:cx="15.017626"
   inkscape:cy="15"
   inkscape:window-width="1920"
   inkscape:window-height="1111"
   inkscape:window-x="-9"
   inkscape:window-y="-9"
   inkscape:window-maximized="1"
   inkscape:current-layer="Layer_1" />
<path
   d="m 4.38,17.195 c 0,-0.24 0.08,-0.44 0.25,-0.61 0.18,-0.17 0.38,-0.25 0.6,-0.25 h 2.04 c 0.23,0 0.42,0.08 0.58,0.25 0.15,0.17 0.23,0.37 0.23,0.61 0,0.24 -0.08,0.44 -0.23,0.6 -0.15,0.17 -0.35,0.25 -0.58,0.25 H 5.24 c -0.23,0 -0.43,-0.08 -0.6,-0.25 -0.17,-0.17 -0.26,-0.37 -0.26,-0.6 z m 2.86,-6.91 c 0,-0.23 0.08,-0.43 0.23,-0.61 0.2,-0.17 0.41,-0.25 0.64,-0.25 0.21,0 0.41,0.08 0.59,0.25 l 1.43,1.46 c 0.16,0.15 0.24,0.35 0.24,0.59 0,0.24 -0.08,0.44 -0.24,0.6 -0.16,0.16 -0.36,0.24 -0.6,0.24 -0.24,0 -0.44,-0.08 -0.59,-0.24 l -1.46,-1.43 c -0.16,-0.17 -0.24,-0.37 -0.24,-0.61 z m 0.16,9.31 c 0,-0.22 0.08,-0.41 0.23,-0.55 0.16,-0.14 0.37,-0.22 0.64,-0.22 h 5.71 c 0.27,0 0.48,0.07 0.64,0.22 0.16,0.14 0.24,0.33 0.24,0.55 0,0.27 -0.08,0.48 -0.23,0.64 -0.16,0.16 -0.37,0.24 -0.65,0.24 H 8.27 C 8,20.475 7.79,20.395 7.63,20.245 7.47,20.095 7.4,19.865 7.4,19.595 Z m 0.99,2.95 c 0,-0.22 0.09,-0.42 0.28,-0.6 0.18,-0.18 0.39,-0.27 0.6,-0.27 0.26,0 0.47,0.09 0.63,0.26 0.16,0.18 0.24,0.38 0.24,0.61 0,0.28 -0.08,0.49 -0.23,0.65 -0.15,0.16 -0.37,0.23 -0.64,0.23 -0.23,0 -0.44,-0.08 -0.61,-0.24 -0.18,-0.16 -0.27,-0.38 -0.27,-0.64 z m 1.41,-5.06 v -0.07 c 0.03,-1.26 0.47,-2.35 1.31,-3.28 0.84,-0.93 1.87,-1.49 3.1,-1.69 h 0.05 c 0.19,-0.04 0.45,-0.06 0.76,-0.06 0.31,0 0.57,0.02 0.76,0.06 h 0.04 c 1.22,0.19 2.26,0.76 3.1,1.69 0.84,0.93 1.28,2.02 1.31,3.28 v 0.07 c 0,0.16 -0.08,0.24 -0.23,0.24 h -1.13 c -0.12,0 -0.2,-0.03 -0.25,-0.09 -0.05,-0.06 -0.07,-0.12 -0.07,-0.18 -0.04,-0.93 -0.4,-1.72 -1.08,-2.37 -0.68,-0.65 -1.49,-0.97 -2.44,-0.97 -0.95,0 -1.76,0.32 -2.44,0.97 -0.68,0.65 -1.04,1.44 -1.08,2.37 0,0.06 -0.03,0.12 -0.08,0.18 -0.05,0.06 -0.14,0.09 -0.26,0.09 h -1.13 c -0.16,0 -0.24,-0.08 -0.24,-0.24 z m 1.01,5.06 c 0,-0.23 0.08,-0.43 0.24,-0.61 0.16,-0.17 0.37,-0.26 0.63,-0.26 h 3.83 c 0.22,0 0.42,0.09 0.6,0.27 0.18,0.18 0.28,0.38 0.28,0.6 0,0.26 -0.09,0.48 -0.27,0.64 -0.18,0.16 -0.38,0.24 -0.61,0.24 h -3.83 c -0.27,0 -0.48,-0.08 -0.64,-0.23 -0.16,-0.16 -0.23,-0.37 -0.23,-0.65 z m 3.34,-13.08 v -2.03 c 0,-0.24 0.08,-0.44 0.25,-0.61 0.17,-0.17 0.37,-0.25 0.61,-0.25 0.24,0 0.43,0.08 0.6,0.25 0.17,0.17 0.25,0.37 0.25,0.61 v 2.03 c 0,0.23 -0.08,0.43 -0.25,0.58 -0.17,0.15 -0.37,0.24 -0.6,0.24 -0.23,0 -0.44,-0.08 -0.6,-0.23 -0.16,-0.15 -0.26,-0.36 -0.26,-0.59 z m 1.36,10.13 c 0,-0.21 0.09,-0.39 0.27,-0.54 0.18,-0.15 0.38,-0.23 0.61,-0.23 0.23,0 0.43,0.08 0.61,0.23 0.18,0.15 0.27,0.33 0.27,0.54 0,0.26 -0.09,0.48 -0.27,0.64 -0.18,0.16 -0.38,0.24 -0.61,0.24 -0.23,0 -0.44,-0.08 -0.61,-0.24 -0.18,-0.17 -0.27,-0.38 -0.27,-0.64 z m 1.54,2.95 c 0,-0.23 0.08,-0.43 0.24,-0.61 0.16,-0.17 0.38,-0.26 0.64,-0.26 h 1.86 c 0.26,0 0.47,0.09 0.63,0.26 0.16,0.18 0.24,0.38 0.24,0.61 0,0.28 -0.08,0.49 -0.23,0.65 -0.15,0.16 -0.37,0.23 -0.64,0.23 h -1.86 c -0.27,0 -0.48,-0.08 -0.64,-0.23 -0.16,-0.16 -0.24,-0.37 -0.24,-0.65 z m 0.88,-2.95 c 0,-0.21 0.09,-0.39 0.27,-0.54 0.18,-0.15 0.38,-0.23 0.6,-0.23 h 3.07 c 0.22,0 0.4,0.07 0.54,0.22 0.14,0.15 0.22,0.33 0.22,0.55 0,0.27 -0.07,0.48 -0.21,0.64 -0.14,0.16 -0.32,0.24 -0.55,0.24 H 18.8 c -0.23,0 -0.43,-0.08 -0.61,-0.24 -0.17,-0.17 -0.26,-0.38 -0.26,-0.64 z m 1.74,-7.87 c 0,-0.25 0.08,-0.45 0.23,-0.59 l 1.42,-1.46 c 0.18,-0.17 0.38,-0.25 0.59,-0.25 0.23,0 0.43,0.08 0.6,0.25 0.17,0.17 0.25,0.37 0.25,0.61 0,0.24 -0.08,0.45 -0.24,0.61 l -1.46,1.42 c -0.18,0.16 -0.38,0.24 -0.6,0.24 -0.23,0 -0.41,-0.08 -0.56,-0.24 -0.15,-0.15 -0.23,-0.35 -0.23,-0.59 z m 2.26,5.47 c 0,-0.23 0.08,-0.43 0.24,-0.61 0.17,-0.17 0.36,-0.25 0.57,-0.25 h 2.02 c 0.23,0 0.43,0.09 0.6,0.26 0.17,0.17 0.26,0.37 0.26,0.6 0,0.23 -0.09,0.43 -0.26,0.6 -0.17,0.17 -0.37,0.25 -0.6,0.25 h -2.02 c -0.23,0 -0.43,-0.08 -0.58,-0.25 -0.15,-0.17 -0.23,-0.36 -0.23,-0.6 z"
   id="path1"
   style="fill:#ffffff" />
</svg>
