<?xml version="1.0" encoding="UTF-8" standalone="no"?>
<!-- Generator: Adobe Illustrator 22.0.1, SVG Export Plug-In . SVG Version: 6.00 Build 0)  -->

<svg
   version="1.1"
   id="Layer_1"
   x="0px"
   y="0px"
   viewBox="0 0 30 30"
   style="enable-background:new 0 0 30 30;"
   xml:space="preserve"
   sodipodi:docname="wi-day-cloudy.svg"
   inkscape:export-filename="wi-day-cloudy.png"
   inkscape:export-xdpi="96"
   inkscape:export-ydpi="96"
   inkscape:version="1.4.3 (0d15f75, 2025-12-25)"
   xmlns:inkscape="http://www.inkscape.org/namespaces/inkscape"
   xmlns:sodipodi="http://sodipodi.sourceforge.net/DTD/sodipodi-0.dtd"
   xmlns="http://www.w3.org/2000/svg"
   xmlns:svg="http://www.w3.org/2000/svg"><defs
   id="defs1" /><sodipodi:namedview
   id="namedview1"
   pagecolor="#000000"
   bordercolor="#000000"
   borderopacity="0.25"
   inkscape:showpageshadow="2"
   inkscape:pageopacity="0.0"
   inkscape:pagecheckerboard="0"
   inkscape:deskcolor="#d1d1d1"
   inkscape:zoom="28.366667"
   inkscape:cx="15"
   inkscape:cy="15"
   inkscape:window-width="1920"
   inkscape:window-height="1111"
   inkscape:window-x="-9"
   inkscape:window-y="-9"
   inkscape:window-maximized="1"
   inkscape:current-layer="Layer_1" />
<path
   d="m 1.56,20.52 c 0,0.9 0.22,1.73 0.66,2.49 0.44,0.76 1.04,1.36 1.8,1.8 0.76,0.44 1.58,0.66 2.47,0.66 h 10.83 c 0.89,0 1.72,-0.22 2.48,-0.66 0.76,-0.44 1.37,-1.04 1.81,-1.8 0.44,-0.76 0.67,-1.59 0.67,-2.49 0,-0.66 -0.14,-1.33 -0.42,-2 C 22.62,17.6 23,16.49 23,15.22 23,14.51 22.86,13.83 22.59,13.18 22.32,12.53 21.94,11.98 21.47,11.51 21,11.04 20.45,10.66 19.8,10.39 19.15,10.11 18.47,9.98 17.76,9.98 c -1.48,0 -2.77,0.58 -3.88,1.74 -0.77,-0.44 -1.67,-0.66 -2.7,-0.66 -1.41,0 -2.65,0.44 -3.73,1.31 -1.08,0.87 -1.78,1.99 -2.08,3.35 -1.12,0.26 -2.03,0.83 -2.74,1.73 -0.71,0.9 -1.07,1.92 -1.07,3.07 z m 1.71,0 c 0,-0.84 0.28,-1.56 0.84,-2.17 0.56,-0.61 1.26,-0.96 2.1,-1.06 l 0.5,-0.03 c 0.12,0 0.19,-0.06 0.19,-0.18 l 0.07,-0.54 c 0.14,-1.08 0.61,-1.99 1.41,-2.71 0.8,-0.73 1.74,-1.09 2.81,-1.09 1.1,0 2.06,0.37 2.87,1.1 0.82,0.73 1.27,1.63 1.37,2.71 l 0.07,0.58 c 0.02,0.11 0.09,0.17 0.21,0.17 h 1.61 c 0.88,0 1.64,0.32 2.28,0.96 0.64,0.64 0.96,1.39 0.96,2.27 0,0.91 -0.32,1.68 -0.95,2.32 -0.63,0.64 -1.4,0.96 -2.28,0.96 H 6.49 C 5.61,23.81 4.86,23.49 4.22,22.84 3.59,22.19 3.27,21.42 3.27,20.52 Z M 9.97,8.25 c 0,0.24 0.08,0.45 0.24,0.63 l 0.66,0.64 c 0.25,0.19 0.46,0.27 0.64,0.25 0.21,0 0.39,-0.09 0.55,-0.26 C 12.22,9.34 12.3,9.13 12.3,8.89 12.3,8.65 12.21,8.45 12.04,8.3 L 11.45,7.64 C 11.27,7.48 11.07,7.4 10.84,7.4 10.6,7.4 10.39,7.48 10.22,7.65 10.05,7.81 9.97,8.01 9.97,8.25 Z m 5.34,4.43 c 0.69,-0.67 1.51,-1 2.45,-1 0.99,0 1.83,0.34 2.52,1.03 0.69,0.69 1.04,1.52 1.04,2.51 0,0.62 -0.17,1.24 -0.51,1.84 -0.97,-0.96 -2.13,-1.44 -3.49,-1.44 H 17 C 16.75,14.53 16.19,13.55 15.31,12.68 Z M 16.94,7.4 c 0,0.26 0.08,0.46 0.23,0.62 0.15,0.16 0.35,0.23 0.59,0.23 0.26,0 0.46,-0.08 0.62,-0.23 0.16,-0.16 0.23,-0.36 0.23,-0.62 V 5.35 C 18.61,5.11 18.53,4.92 18.37,4.76 18.21,4.6 18.01,4.53 17.76,4.53 c -0.24,0 -0.43,0.08 -0.59,0.23 -0.16,0.15 -0.23,0.35 -0.23,0.59 V 7.4 Z m 5.52,2.29 c 0,0.26 0.07,0.46 0.22,0.62 0.21,0.16 0.42,0.24 0.62,0.24 0.18,0 0.38,-0.08 0.59,-0.24 L 25.32,8.88 C 25.48,8.7 25.56,8.49 25.56,8.24 25.56,8 25.48,7.8 25.32,7.64 25.16,7.48 24.96,7.4 24.73,7.4 24.49,7.4 24.3,7.48 24.15,7.64 l -1.47,1.43 c -0.15,0.19 -0.22,0.39 -0.22,0.62 z m 0.79,11.84 c 0,0.24 0.08,0.45 0.25,0.63 l 0.65,0.63 c 0.15,0.16 0.34,0.24 0.58,0.24 0.24,0 0.44,-0.08 0.6,-0.25 0.16,-0.17 0.24,-0.37 0.24,-0.62 0,-0.22 -0.08,-0.42 -0.24,-0.58 l -0.65,-0.65 c -0.16,-0.16 -0.35,-0.24 -0.57,-0.24 -0.24,0 -0.44,0.08 -0.6,0.24 -0.17,0.16 -0.26,0.36 -0.26,0.6 z m 1.47,-6.31 c 0,0.23 0.09,0.42 0.26,0.58 0.16,0.16 0.37,0.24 0.61,0.24 h 2.04 c 0.23,0 0.42,-0.08 0.58,-0.23 0.16,-0.15 0.23,-0.35 0.23,-0.59 0,-0.24 -0.08,-0.44 -0.23,-0.6 -0.15,-0.16 -0.35,-0.25 -0.58,-0.25 h -2.04 c -0.24,0 -0.44,0.08 -0.61,0.25 -0.18,0.17 -0.26,0.37 -0.26,0.6 z"
   id="path1"
   style="fill:#ffffff" />
</svg>
