<?xml version="1.0" encoding="UTF-8" standalone="no"?>
<!-- Generator: Adobe Illustrator 22.0.1, SVG Export Plug-In . SVG Version: 6.00 Build 0)  -->

<svg
   version="1.1"
   id="Layer_1"
   x="0px"
   y="0px"
   viewBox="0 0 30 30"
   style="enable-background:new 0 0 30 30;"
   xml:space="preserve"
   sodipodi:docname="wi-day-sunny.svg"
   inkscape:export-filename="wi-day-sunny.png"
   inkscape:export-xdpi="96"
   inkscape:export-ydpi="96"
   inkscape:version="1.4.3 (0d15f75, 2025-12-25)"
   xmlns:inkscape="http://www.inkscape.org/namespaces/inkscape"
   xmlns:sodipodi="http://sodipodi.sourceforge.net/DTD/sodipodi-0.dtd"
   xmlns="http://www.w3.org/2000/svg"
   xmlns:svg="http://www.w3.org/2000/svg"><defs
   id="defs1" /><sodipodi:namedview
   id="namedview1"
   pagecolor="#000000"
   bordercolor="#000000"
   borderopacity="0.25"
   inkscape:showpageshadow="2"
   inkscape:pageopacity="0.0"
   inkscape:pagecheckerboard="0"
   inkscape:deskcolor="#d1d1d1"
   inkscape:zoom="28.366667"
   inkscape:cx="14.982374"
   inkscape:cy="15"
   inkscape:window-width="1920"
   inkscape:window-height="1111"
   inkscape:window-x="-9"
   inkscape:window-y="-9"
   inkscape:window-maximized="1"
   inkscape:current-layer="Layer_1" />
<path
   d="m 4.38,14.99 c 0,-0.24 0.08,-0.45 0.25,-0.62 0.17,-0.16 0.38,-0.24 0.6,-0.24 h 2.04 c 0.23,0 0.42,0.08 0.58,0.25 0.15,0.17 0.23,0.37 0.23,0.61 0,0.24 -0.07,0.44 -0.22,0.61 -0.15,0.17 -0.35,0.25 -0.58,0.25 H 5.24 C 5.01,15.85 4.81,15.77 4.64,15.6 4.47,15.43 4.38,15.23 4.38,14.99 Z m 2.86,6.93 c 0,-0.23 0.08,-0.43 0.23,-0.61 l 1.47,-1.43 c 0.15,-0.16 0.35,-0.23 0.59,-0.23 0.24,0 0.44,0.08 0.6,0.23 0.16,0.15 0.24,0.34 0.24,0.57 0,0.24 -0.08,0.46 -0.24,0.64 L 8.71,22.51 C 8.3,22.83 7.89,22.83 7.48,22.51 7.32,22.35 7.24,22.15 7.24,21.92 Z m 0,-13.84 C 7.24,7.85 7.32,7.65 7.47,7.47 7.67,7.3 7.88,7.22 8.11,7.22 8.33,7.22 8.53,7.3 8.7,7.46 l 1.43,1.47 c 0.16,0.15 0.24,0.35 0.24,0.59 0,0.24 -0.08,0.44 -0.24,0.6 -0.16,0.16 -0.36,0.24 -0.6,0.24 -0.24,0 -0.44,-0.08 -0.59,-0.24 L 7.48,8.69 C 7.32,8.53 7.24,8.32 7.24,8.08 Z m 2.55,6.91 c 0,-0.93 0.23,-1.8 0.7,-2.6 0.47,-0.8 1.1,-1.44 1.91,-1.91 0.81,-0.47 1.67,-0.7 2.6,-0.7 0.7,0 1.37,0.14 2.02,0.42 0.64,0.28 1.2,0.65 1.66,1.12 0.47,0.47 0.84,1.02 1.11,1.66 0.27,0.64 0.41,1.32 0.41,2.02 0,0.94 -0.23,1.81 -0.7,2.61 -0.47,0.8 -1.1,1.43 -1.9,1.9 -0.8,0.47 -1.67,0.7 -2.61,0.7 -0.94,0 -1.81,-0.23 -2.61,-0.7 -0.8,-0.47 -1.43,-1.1 -1.9,-1.9 C 10.03,16.8 9.79,15.93 9.79,14.99 Z m 1.7,0 c 0,0.98 0.34,1.81 1.03,2.5 0.68,0.69 1.51,1.04 2.49,1.04 0.98,0 1.81,-0.35 2.5,-1.04 0.69,-0.69 1.04,-1.52 1.04,-2.5 0,-0.96 -0.35,-1.78 -1.04,-2.47 -0.69,-0.68 -1.52,-1.02 -2.5,-1.02 -0.97,0 -1.8,0.34 -2.48,1.02 -0.7,0.69 -1.04,1.51 -1.04,2.47 z m 2.66,7.78 c 0,-0.24 0.08,-0.44 0.25,-0.6 0.17,-0.16 0.37,-0.24 0.6,-0.24 0.24,0 0.45,0.08 0.61,0.24 0.16,0.16 0.24,0.36 0.24,0.6 v 1.99 c 0,0.24 -0.08,0.45 -0.25,0.62 -0.17,0.17 -0.37,0.25 -0.6,0.25 -0.23,0 -0.44,-0.08 -0.6,-0.25 C 14.23,25.21 14.15,25 14.15,24.76 Z m 0,-15.5 V 5.23 c 0,-0.23 0.08,-0.43 0.25,-0.6 0.17,-0.17 0.37,-0.26 0.61,-0.26 0.24,0 0.43,0.08 0.6,0.25 0.17,0.17 0.25,0.37 0.25,0.6 v 2.05 c 0,0.23 -0.08,0.42 -0.25,0.58 -0.17,0.16 -0.37,0.23 -0.6,0.23 C 14.78,8.08 14.57,8 14.41,7.85 14.25,7.7 14.15,7.5 14.15,7.27 Z m 5.52,13.18 c 0,-0.23 0.08,-0.42 0.23,-0.56 0.15,-0.16 0.34,-0.23 0.56,-0.23 0.24,0 0.44,0.08 0.6,0.23 l 1.46,1.43 c 0.16,0.17 0.24,0.38 0.24,0.61 0,0.23 -0.08,0.43 -0.24,0.59 -0.4,0.31 -0.8,0.31 -1.2,0 L 19.9,21.1 c -0.15,-0.18 -0.23,-0.39 -0.23,-0.65 z m 0,-10.92 c 0,-0.25 0.08,-0.45 0.23,-0.59 l 1.42,-1.47 c 0.17,-0.16 0.37,-0.24 0.59,-0.24 0.24,0 0.44,0.08 0.6,0.25 0.17,0.17 0.25,0.37 0.25,0.6 0,0.25 -0.08,0.46 -0.24,0.62 l -1.46,1.43 c -0.18,0.16 -0.38,0.24 -0.6,0.24 -0.23,0 -0.41,-0.08 -0.56,-0.24 -0.15,-0.16 -0.23,-0.36 -0.23,-0.6 z m 2.26,5.46 c 0,-0.24 0.08,-0.44 0.24,-0.62 0.16,-0.16 0.35,-0.24 0.57,-0.24 h 2.02 c 0.23,0 0.43,0.09 0.6,0.26 0.17,0.17 0.26,0.37 0.26,0.6 0,0.23 -0.09,0.43 -0.26,0.6 -0.17,0.17 -0.37,0.25 -0.6,0.25 h -2.02 c -0.23,0 -0.43,-0.08 -0.58,-0.25 -0.15,-0.17 -0.23,-0.36 -0.23,-0.6 z"
   id="path1"
   style="fill:#ffffff" />
</svg>
