<?xml version="1.0" encoding="UTF-8" standalone="no"?>
<!-- Generator: Adobe Illustrator 22.0.1, SVG Export Plug-In . SVG Version: 6.00 Build 0)  -->

<svg
   version="1.1"
   id="Layer_1"
   x="0px"
   y="0px"
   viewBox="0 0 30 30"
   style="enable-background:new 0 0 30 30;"
   xml:space="preserve"
   sodipodi:docname="wi-day-fog.svg"
   inkscape:export-filename="wi-day-fog.png"
   inkscape:export-xdpi="96"
   inkscape:export-ydpi="96"
   inkscape:version="1.4.3 (0d15f75, 2025-12-25)"
   xmlns:inkscape="http://www.inkscape.org/namespaces/inkscape"
   xmlns:sodipodi="http://sodipodi.sourceforge.net/DTD/sodipodi-0.dtd"
   xmlns="http://www.w3.org/2000/svg"
   xmlns:svg="http://www.w3.org/2000/svg"><defs
   id="defs1" /><sodipodi:namedview
   id="namedview1"
   pagecolor="#000000"
   bordercolor="#000000"
   borderopacity="0.25"
   inkscape:showpageshadow="2"
   inkscape:pageopacity="0.0"
   inkscape:pagecheckerboard="0"
   inkscape:deskcolor="#d1d1d1"
   inkscape:zoom="28.366667"
   inkscape:cx="15"
   inkscape:cy="15"
   inkscape:window-width="936"
   inkscape:window-height="283"
   inkscape:window-x="128"
   inkscape:window-y="128"
   inkscape:window-maximized="0"
   inkscape:current-layer="Layer_1" />
<path
   d="m 0.315,23.11 c 0,0.23 0.08,0.43 0.25,0.59 0.17,0.16 0.38,0.24 0.63,0.24 h 18.71 c 0.24,0 0.44,-0.08 0.61,-0.24 0.17,-0.16 0.25,-0.35 0.25,-0.59 0,-0.24 -0.08,-0.44 -0.25,-0.6 -0.17,-0.17 -0.37,-0.25 -0.61,-0.25 H 1.195 c -0.25,0 -0.46,0.08 -0.63,0.25 -0.17,0.17 -0.25,0.36 -0.25,0.6 z m 2.62,-3.14 c 0,0.23 0.08,0.43 0.25,0.58 0.17,0.18 0.37,0.27 0.6,0.27 h 18.72 c 0.23,0 0.43,-0.08 0.59,-0.25 0.16,-0.17 0.24,-0.37 0.24,-0.6 0,-0.23 -0.08,-0.43 -0.23,-0.59 -0.16,-0.16 -0.35,-0.24 -0.59,-0.24 H 3.795 c -0.24,0 -0.44,0.08 -0.6,0.24 -0.17,0.17 -0.26,0.36 -0.26,0.59 z m 0.13,-2.4 c 0,0.09 0.05,0.13 0.16,0.13 h 1.43 c 0.07,0 0.14,-0.05 0.21,-0.16 0.24,-0.52 0.59,-0.94 1.06,-1.27 0.47,-0.33 0.99,-0.52 1.56,-0.56 l 0.54,-0.07 c 0.11,0 0.17,-0.06 0.17,-0.18 l 0.07,-0.51 c 0.11,-1.08 0.56,-1.98 1.37,-2.71 0.81,-0.72 1.76,-1.09 2.86,-1.09 1.08,0 2.03,0.36 2.84,1.08 0.81,0.72 1.27,1.61 1.38,2.68 l 0.07,0.58 c 0,0.11 0.06,0.17 0.19,0.17 h 1.61 c 0.64,0 1.23,0.17 1.76,0.52 0.53,0.34 0.92,0.8 1.18,1.37 0.07,0.11 0.13,0.16 0.2,0.16 h 1.44 c 0.13,0 0.18,-0.07 0.13,-0.23 l -0.2,-0.55 c 0.76,-0.94 1.13,-2.04 1.13,-3.31 0,-0.71 -0.14,-1.38 -0.41,-2.03 -0.27,-0.65 -0.64,-1.2 -1.11,-1.67 -0.46,-0.47 -1.02,-0.84 -1.67,-1.12 -0.65,-0.28 -1.32,-0.4 -2.04,-0.4 -1.54,0 -2.82,0.56 -3.82,1.68 -0.85,-0.42 -1.74,-0.63 -2.68,-0.63 -1.4,0 -2.65,0.44 -3.74,1.32 -1.09,0.88 -1.79,2 -2.1,3.37 -1.78,0.47 -2.98,1.58 -3.58,3.35 -0.01,0.01 -0.01,0.04 -0.01,0.08 z m 1.62,8.61 c 0,0.24 0.09,0.44 0.27,0.6 0.16,0.17 0.35,0.26 0.59,0.26 h 18.74 c 0.23,0 0.43,-0.08 0.6,-0.25 0.17,-0.17 0.25,-0.37 0.25,-0.61 0,-0.23 -0.08,-0.42 -0.25,-0.58 -0.17,-0.15 -0.37,-0.23 -0.6,-0.23 H 5.545 c -0.24,0 -0.44,0.08 -0.61,0.23 -0.17,0.16 -0.25,0.35 -0.25,0.58 z m 6.57,-19.47 c 0,0.24 0.08,0.43 0.23,0.59 l 0.65,0.64 c 0.17,0.18 0.36,0.27 0.58,0.27 0.22,0 0.42,-0.08 0.6,-0.25 0.17,-0.17 0.26,-0.37 0.26,-0.61 0,-0.24 -0.08,-0.45 -0.25,-0.63 l -0.64,-0.61 c -0.16,-0.17 -0.36,-0.26 -0.6,-0.26 -0.24,0 -0.44,0.08 -0.6,0.25 -0.15,0.16 -0.23,0.37 -0.23,0.61 z m 5.32,4.38 c 0.67,-0.68 1.48,-1.01 2.43,-1.01 0.98,0 1.82,0.35 2.51,1.04 0.69,0.69 1.04,1.53 1.04,2.5 0,0.65 -0.16,1.25 -0.49,1.8 C 21.115,14.47 19.955,14 18.595,14 h -0.34 c -0.29,-1.18 -0.85,-2.15 -1.68,-2.91 z m 1.6,-5.23 c 0,0.23 0.08,0.43 0.24,0.59 0.16,0.16 0.35,0.24 0.59,0.24 0.25,0 0.46,-0.08 0.63,-0.24 0.17,-0.16 0.25,-0.35 0.25,-0.59 V 3.81 c 0,-0.23 -0.09,-0.43 -0.26,-0.6 -0.18,-0.17 -0.39,-0.25 -0.63,-0.25 -0.23,0 -0.43,0.08 -0.59,0.25 -0.16,0.17 -0.24,0.37 -0.24,0.6 v 2.05 z m 5.49,2.27 c 0,0.22 0.08,0.43 0.24,0.6 0.37,0.36 0.78,0.36 1.23,0 l 1.43,-1.43 c 0.16,-0.18 0.24,-0.39 0.24,-0.64 0,-0.23 -0.08,-0.43 -0.24,-0.59 -0.16,-0.16 -0.36,-0.24 -0.59,-0.24 -0.24,0 -0.44,0.08 -0.6,0.24 l -1.46,1.47 c -0.17,0.18 -0.25,0.38 -0.25,0.59 z m 0.81,11.8 c 0,0.24 0.09,0.44 0.26,0.6 l 0.64,0.65 c 0.16,0.16 0.36,0.24 0.58,0.24 0.21,0 0.41,-0.08 0.61,-0.24 0.16,-0.17 0.24,-0.39 0.24,-0.64 0,-0.22 -0.08,-0.41 -0.24,-0.56 l -0.65,-0.66 c -0.18,-0.16 -0.38,-0.24 -0.6,-0.24 -0.24,0 -0.44,0.08 -0.6,0.25 -0.16,0.16 -0.24,0.36 -0.24,0.6 z m 1.48,-6.31 c 0,0.24 0.09,0.44 0.26,0.6 0.15,0.17 0.35,0.25 0.59,0.25 h 2.05 c 0.23,0 0.43,-0.08 0.59,-0.25 0.16,-0.17 0.24,-0.37 0.24,-0.6 0,-0.24 -0.08,-0.44 -0.24,-0.6 -0.16,-0.16 -0.35,-0.24 -0.59,-0.24 h -2.05 c -0.24,0 -0.44,0.08 -0.6,0.25 -0.17,0.16 -0.25,0.36 -0.25,0.59 z"
   id="path1"
   style="fill:#ffffff" />
</svg>
