<?xml version="1.0" encoding="UTF-8" standalone="no"?>
<!-- Generator: Adobe Illustrator 22.0.1, SVG Export Plug-In . SVG Version: 6.00 Build 0)  -->

<svg
   version="1.1"
   id="Layer_1"
   x="0px"
   y="0px"
   viewBox="0 0 30 30"
   style="enable-background:new 0 0 30 30;"
   xml:space="preserve"
   sodipodi:docname="wi-rain-wind.svg"
   inkscape:export-filename="wi-rain-wind.png"
   inkscape:export-xdpi="96"
   inkscape:export-ydpi="96"
   inkscape:version="1.4.3 (0d15f75, 2025-12-25)"
   xmlns:inkscape="http://www.inkscape.org/namespaces/inkscape"
   xmlns:sodipodi="http://sodipodi.sourceforge.net/DTD/sodipodi-0.dtd"
   xmlns="http://www.w3.org/2000/svg"
   xmlns:svg="http://www.w3.org/2000/svg"><defs
   id="defs1" /><sodipodi:namedview
   id="namedview1"
   pagecolor="#000000"
   bordercolor="#000000"
   borderopacity="0.25"
   inkscape:showpageshadow="2"
   inkscape:pageopacity="0.0"
   inkscape:pagecheckerboard="0"
   inkscape:deskcolor="#d1d1d1"
   inkscape:zoom="28.366667"
   inkscape:cx="15.017626"
   inkscape:cy="15"
   inkscape:window-width="1920"
   inkscape:window-height="1111"
   inkscape:window-x="-9"
   inkscape:window-y="-9"
   inkscape:window-maximized="1"
   inkscape:current-layer="Layer_1" />
<path
   d="m 4.625,14.16 c 0,1.12 0.33,2.11 0.98,2.99 0.65,0.87 1.5,1.47 2.55,1.79 0.09,0.02 0.17,-0.01 0.24,-0.08 l 1.16,-1.43 c -0.89,0 -1.65,-0.32 -2.28,-0.96 -0.63,-0.64 -0.95,-1.41 -0.95,-2.31 0,-0.84 0.28,-1.58 0.84,-2.2 0.56,-0.62 1.26,-0.97 2.1,-1.04 l 0.53,-0.07 c 0.11,0 0.16,-0.04 0.16,-0.13 l 0.08,-0.55 c 0.12,-1.1 0.59,-2.01 1.39,-2.73 0.8,-0.72 1.75,-1.08 2.85,-1.08 1.1,0 2.06,0.36 2.87,1.09 0.82,0.73 1.27,1.64 1.37,2.72 l 0.07,0.58 c 0.02,0.11 0.1,0.17 0.22,0.17 h 1.62 c 0.9,0 1.67,0.32 2.3,0.95 0.63,0.63 0.95,1.39 0.95,2.29 0,0.83 -0.28,1.56 -0.84,2.18 -0.56,0.62 -1.25,0.98 -2.07,1.08 -0.12,0 -0.28,0.02 -0.49,0.06 -0.19,0.02 -0.33,0.09 -0.41,0.23 l -2.36,2.79 c -0.14,0.18 -0.2,0.39 -0.16,0.63 0.03,0.24 0.14,0.43 0.31,0.57 0.11,0.12 0.29,0.19 0.56,0.19 0.26,0 0.47,-0.12 0.61,-0.35 l 2.12,-2.44 c 1.24,-0.13 2.29,-0.66 3.15,-1.61 0.86,-0.95 1.28,-2.06 1.28,-3.33 0,-0.67 -0.13,-1.32 -0.39,-1.93 -0.26,-0.61 -0.61,-1.14 -1.05,-1.58 -0.44,-0.44 -0.97,-0.79 -1.58,-1.05 -0.61,-0.26 -1.25,-0.39 -1.93,-0.39 h -0.32 c -0.33,-1.32 -1.04,-2.41 -2.12,-3.26 -1.08,-0.85 -2.32,-1.27 -3.72,-1.27 -0.93,0 -1.81,0.2 -2.63,0.6 -0.82,0.4 -1.51,0.95 -2.08,1.66 -0.57,0.71 -0.94,1.52 -1.13,2.42 -1.12,0.25 -2.04,0.82 -2.75,1.72 -0.7,0.89 -1.05,1.92 -1.05,3.08 z m 3.38,8.02 c 0,0.06 0.02,0.16 0.06,0.3 0.09,0.21 0.23,0.36 0.44,0.44 0.22,0.1 0.44,0.11 0.67,0.02 0.23,-0.09 0.38,-0.24 0.46,-0.45 0.1,-0.22 0.11,-0.43 0.02,-0.65 -0.09,-0.21 -0.24,-0.36 -0.46,-0.43 -0.22,-0.11 -0.44,-0.12 -0.65,-0.03 -0.21,0.09 -0.36,0.24 -0.46,0.47 -0.05,0.1 -0.08,0.21 -0.08,0.33 z m 1.85,-2.44 v 0.1 c 0.02,0.23 0.12,0.41 0.3,0.56 0.23,0.13 0.43,0.19 0.62,0.19 0.22,0 0.43,-0.11 0.61,-0.33 l 2.32,-2.77 c 0.14,-0.17 0.21,-0.39 0.2,-0.66 -0.02,-0.21 -0.12,-0.39 -0.28,-0.53 -0.16,-0.14 -0.33,-0.22 -0.52,-0.22 -0.06,0 -0.1,0 -0.14,0.01 -0.23,0.04 -0.42,0.15 -0.56,0.33 l -2.36,2.77 c -0.13,0.16 -0.19,0.34 -0.19,0.55 z m 0.77,4.72 c 0,0.12 0.03,0.23 0.08,0.32 0.08,0.21 0.23,0.37 0.44,0.47 0.11,0.05 0.22,0.07 0.33,0.07 0.12,0 0.23,-0.02 0.31,-0.07 0.23,-0.09 0.39,-0.23 0.47,-0.41 0.1,-0.22 0.11,-0.44 0.02,-0.67 -0.08,-0.23 -0.23,-0.38 -0.45,-0.46 -0.22,-0.1 -0.44,-0.11 -0.67,-0.02 -0.23,0.09 -0.38,0.24 -0.45,0.45 -0.06,0.09 -0.08,0.2 -0.08,0.32 z m 1.67,-2.35 v 0.11 c 0.02,0.22 0.13,0.4 0.31,0.55 0.18,0.15 0.37,0.22 0.55,0.22 0.23,0 0.43,-0.11 0.63,-0.33 l 4.35,-5.24 c 0.11,-0.12 0.17,-0.3 0.17,-0.52 v -0.12 c -0.02,-0.23 -0.12,-0.4 -0.27,-0.53 -0.15,-0.13 -0.33,-0.2 -0.52,-0.2 h -0.13 c -0.23,0.01 -0.42,0.12 -0.55,0.31 l -4.35,5.2 c -0.14,0.18 -0.19,0.36 -0.19,0.55 z m 3.51,1.15 c 0,0.09 0.02,0.19 0.06,0.3 0.09,0.22 0.24,0.38 0.46,0.47 0.14,0.04 0.24,0.06 0.31,0.06 0.14,0 0.26,-0.03 0.34,-0.08 0.22,-0.09 0.38,-0.23 0.46,-0.42 0.1,-0.17 0.11,-0.39 0.02,-0.67 -0.08,-0.21 -0.23,-0.35 -0.44,-0.44 l -0.36,-0.09 c -0.09,0.02 -0.19,0.04 -0.32,0.07 -0.22,0.08 -0.37,0.23 -0.45,0.44 -0.05,0.13 -0.08,0.25 -0.08,0.36 z"
   id="path1"
   style="fill:#ffffff" />
</svg>
