<?xml version="1.0" encoding="UTF-8" standalone="no"?>
<!-- Generator: Adobe Illustrator 22.0.1, SVG Export Plug-In . SVG Version: 6.00 Build 0)  -->

<svg
   version="1.1"
   id="Layer_1"
   x="0px"
   y="0px"
   viewBox="0 0 30 30"
   style="enable-background:new 0 0 30 30;"
   xml:space="preserve"
   sodipodi:docname="wi-showers.svg"
   inkscape:export-filename="wi-showers.png"
   inkscape:export-xdpi="96"
   inkscape:export-ydpi="96"
   inkscape:version="1.4.3 (0d15f75, 2025-12-25)"
   xmlns:inkscape="http://www.inkscape.org/namespaces/inkscape"
   xmlns:sodipodi="http://sodipodi.sourceforge.net/DTD/sodipodi-0.dtd"
   xmlns="http://www.w3.org/2000/svg"
   xmlns:svg="http://www.w3.org/2000/svg"><defs
   id="defs1" /><sodipodi:namedview
   id="namedview1"
   pagecolor="#000000"
   bordercolor="#000000"
   borderopacity="0.25"
   inkscape:showpageshadow="2"
   inkscape:pageopacity="0.0"
   inkscape:pagecheckerboard="0"
   inkscape:deskcolor="#d1d1d1"
   inkscape:zoom="28.366667"
   inkscape:cx="15.017626"
   inkscape:cy="15"
   inkscape:window-width="1920"
   inkscape:window-height="1111"
   inkscape:window-x="-9"
   inkscape:window-y="-9"
   inkscape:window-maximized="1"
   inkscape:current-layer="Layer_1" />
<path
   d="M 4.6,14.39 C 4.6,13.23 4.96,12.21 5.69,11.31 6.41,10.41 7.34,9.83 8.47,9.58 8.76,8.2 9.45,7.08 10.54,6.19 11.63,5.3 12.88,4.86 14.3,4.86 c 1.39,0 2.63,0.43 3.72,1.28 1.08,0.85 1.79,1.95 2.12,3.3 h 0.34 c 0.9,0 1.73,0.22 2.48,0.66 0.76,0.44 1.35,1.04 1.79,1.8 0.43,0.76 0.65,1.59 0.65,2.49 0,1.34 -0.46,2.48 -1.37,3.44 -0.92,0.96 -2.04,1.46 -3.37,1.5 -0.12,0 -0.18,-0.06 -0.18,-0.17 v -1.34 c 0,-0.11 0.06,-0.17 0.18,-0.17 0.84,-0.07 1.57,-0.42 2.17,-1.05 0.6,-0.63 0.9,-1.37 0.9,-2.22 0,-0.89 -0.32,-1.66 -0.96,-2.31 -0.64,-0.64 -1.4,-0.97 -2.29,-0.97 h -1.63 c -0.12,0 -0.19,-0.06 -0.22,-0.18 L 18.56,10.35 C 18.49,9.64 18.26,8.99 17.86,8.41 17.46,7.83 16.95,7.38 16.33,7.05 15.71,6.72 15.03,6.56 14.31,6.56 c -1.1,0 -2.05,0.36 -2.86,1.09 -0.81,0.73 -1.27,1.64 -1.37,2.72 l -0.07,0.54 c 0,0.09 -0.05,0.14 -0.16,0.14 l -0.54,0.11 c -0.84,0.07 -1.55,0.41 -2.11,1.03 -0.57,0.62 -0.85,1.35 -0.85,2.2 0,0.87 0.3,1.62 0.89,2.25 0.59,0.63 1.31,0.97 2.17,1.02 0.12,0 0.18,0.06 0.18,0.17 v 1.34 c 0,0.11 -0.06,0.17 -0.18,0.17 C 8.75,19.31 8.13,19.16 7.53,18.89 6.93,18.62 6.42,18.26 6,17.82 5.57,17.38 5.23,16.87 4.98,16.27 4.73,15.67 4.6,15.05 4.6,14.39 Z m 5.42,6.77 c 0,-0.03 0.01,-0.08 0.02,-0.13 0.01,-0.05 0.02,-0.09 0.02,-0.11 l 0.27,-1.03 c 0.07,-0.22 0.2,-0.4 0.4,-0.51 0.2,-0.12 0.41,-0.14 0.64,-0.07 0.23,0.07 0.4,0.2 0.52,0.4 0.12,0.2 0.14,0.41 0.07,0.64 l -0.24,1.01 c -0.13,0.44 -0.38,0.66 -0.76,0.66 -0.03,0 -0.05,0 -0.09,0 -0.03,0 -0.07,-0.01 -0.11,-0.01 C 10.72,22 10.69,22 10.66,22 10.45,21.94 10.29,21.82 10.18,21.66 10.07,21.5 10.02,21.32 10.02,21.16 Z m 1.32,-4.82 c 0,-0.02 0,-0.06 0.01,-0.11 0.01,-0.05 0.01,-0.08 0.01,-0.09 l 0.3,-1.05 c 0.06,-0.19 0.17,-0.34 0.32,-0.45 0.15,-0.1 0.31,-0.15 0.47,-0.15 0.02,0 0.05,0 0.08,0 0.03,0 0.06,0.01 0.09,0.01 0.03,0.01 0.06,0.01 0.08,0.01 0.23,0.07 0.4,0.2 0.51,0.4 0.12,0.2 0.14,0.41 0.07,0.64 l -0.24,1 c -0.07,0.28 -0.2,0.47 -0.4,0.59 -0.2,0.12 -0.42,0.12 -0.65,0.02 C 11.77,17.1 11.61,16.99 11.5,16.82 11.39,16.65 11.34,16.5 11.34,16.34 Z m 1.23,7.95 c 0,-0.03 0.01,-0.07 0.02,-0.13 0.01,-0.06 0.02,-0.09 0.02,-0.12 l 0.29,-0.99 c 0.06,-0.24 0.2,-0.42 0.4,-0.54 0.2,-0.12 0.42,-0.15 0.65,-0.08 0.23,0.07 0.39,0.2 0.51,0.41 0.12,0.21 0.13,0.42 0.07,0.65 l -0.25,1.04 c -0.11,0.41 -0.37,0.61 -0.8,0.61 -0.05,0 -0.13,-0.01 -0.24,-0.04 -0.22,-0.04 -0.38,-0.14 -0.49,-0.3 -0.12,-0.16 -0.18,-0.33 -0.18,-0.51 z m 1.34,-4.77 c 0,-0.06 0.01,-0.14 0.04,-0.25 l 0.27,-1.03 c 0.07,-0.23 0.2,-0.4 0.41,-0.51 0.2,-0.12 0.42,-0.14 0.65,-0.07 0.23,0.06 0.39,0.19 0.51,0.39 0.11,0.2 0.13,0.41 0.06,0.65 l -0.24,0.99 c -0.13,0.45 -0.37,0.68 -0.72,0.68 -0.04,0 -0.15,-0.02 -0.31,-0.06 -0.22,-0.04 -0.38,-0.14 -0.49,-0.3 -0.12,-0.15 -0.18,-0.32 -0.18,-0.49 z m 2.82,1.68 c 0,-0.07 0.01,-0.15 0.03,-0.24 l 0.28,-0.99 c 0.07,-0.24 0.2,-0.42 0.41,-0.54 0.21,-0.12 0.41,-0.15 0.63,-0.09 0.23,0.07 0.41,0.2 0.53,0.41 0.12,0.2 0.15,0.41 0.09,0.63 l -0.29,1.06 c -0.1,0.41 -0.36,0.61 -0.79,0.61 -0.09,0 -0.18,-0.01 -0.26,-0.03 -0.2,-0.04 -0.35,-0.14 -0.46,-0.3 -0.1,-0.18 -0.16,-0.35 -0.17,-0.52 z m 1.38,-4.76 c 0,-0.03 0.02,-0.12 0.05,-0.26 l 0.3,-1.03 c 0.04,-0.21 0.13,-0.37 0.29,-0.47 0.16,-0.1 0.32,-0.15 0.49,-0.14 0.04,-0.01 0.13,0 0.24,0.03 0.22,0.05 0.39,0.18 0.52,0.38 0.12,0.17 0.14,0.38 0.07,0.65 l -0.24,1.03 c -0.13,0.43 -0.38,0.65 -0.76,0.65 -0.06,0 -0.17,-0.02 -0.34,-0.06 -0.21,-0.06 -0.36,-0.17 -0.46,-0.31 -0.11,-0.16 -0.16,-0.31 -0.16,-0.47 z"
   id="path1"
   style="fill:#ffffff" />
</svg>
