<?xml version="1.0" encoding="UTF-8" standalone="no"?>
<!-- Generator: Adobe Illustrator 22.0.1, SVG Export Plug-In . SVG Version: 6.00 Build 0)  -->

<svg
   version="1.1"
   id="Layer_1"
   x="0px"
   y="0px"
   viewBox="0 0 30 30"
   style="enable-background:new 0 0 30 30;"
   xml:space="preserve"
   sodipodi:docname="wi-thunderstorm.svg"
   inkscape:export-filename="wi-thunderstorm.png"
   inkscape:export-xdpi="96"
   inkscape:export-ydpi="96"
   inkscape:version="1.4.3 (0d15f75, 2025-12-25)"
   xmlns:inkscape="http://www.inkscape.org/namespaces/inkscape"
   xmlns:sodipodi="http://sodipodi.sourceforge.net/DTD/sodipodi-0.dtd"
   xmlns="http://www.w3.org/2000/svg"
   xmlns:svg="http://www.w3.org/2000/svg"><defs
   id="defs1" /><sodipodi:namedview
   id="namedview1"
   pagecolor="#000000"
   bordercolor="#000000"
   borderopacity="0.25"
   inkscape:showpageshadow="2"
   inkscape:pageopacity="0.0"
   inkscape:pagecheckerboard="0"
   inkscape:deskcolor="#d1d1d1"
   inkscape:zoom="28.366667"
   inkscape:cx="15"
   inkscape:cy="15"
   inkscape:window-width="1920"
   inkscape:window-height="1111"
   inkscape:window-x="-9"
   inkscape:window-y="-9"
   inkscape:window-maximized="1"
   inkscape:current-layer="Layer_1" />
<path
   d="m 4.62,14.27 c 0,1.11 0.33,2.1 0.99,2.97 0.66,0.87 1.52,1.47 2.58,1.79 l -0.66,1.68 c -0.03,0.14 0.02,0.22 0.14,0.22 H 9.8 l -0.98,4.3 H 9.1 l 3.92,-5.75 c 0.04,-0.04 0.04,-0.09 0.01,-0.14 C 13,19.29 12.95,19.27 12.88,19.27 H 10.7 l 2.48,-4.64 c 0.07,-0.14 0.02,-0.22 -0.14,-0.22 H 10.1 c -0.09,0 -0.17,0.05 -0.23,0.15 L 8.8,17.43 C 8.09,17.25 7.5,16.86 7.03,16.27 6.56,15.68 6.33,15.01 6.33,14.26 c 0,-0.83 0.28,-1.55 0.85,-2.17 0.57,-0.61 1.27,-0.97 2.1,-1.07 l 0.53,-0.07 c 0.13,0 0.2,-0.06 0.2,-0.18 l 0.07,-0.51 c 0.11,-1.08 0.56,-1.99 1.37,-2.72 0.81,-0.73 1.76,-1.1 2.85,-1.1 1.09,0 2.04,0.37 2.85,1.1 0.82,0.73 1.28,1.64 1.4,2.72 l 0.07,0.58 c 0,0.11 0.06,0.17 0.18,0.17 h 1.6 c 0.91,0 1.68,0.32 2.32,0.95 0.64,0.63 0.97,1.4 0.97,2.28 0,0.85 -0.3,1.59 -0.89,2.21 -0.59,0.62 -1.33,0.97 -2.2,1.04 -0.13,0 -0.2,0.06 -0.2,0.18 v 1.37 c 0,0.11 0.07,0.17 0.2,0.17 1.33,-0.04 2.46,-0.55 3.39,-1.51 0.93,-0.96 1.39,-2.11 1.39,-3.45 0,-0.9 -0.22,-1.73 -0.67,-2.49 C 24.27,11 23.66,10.4 22.9,9.96 22.13,9.52 21.3,9.3 20.4,9.3 H 20.09 C 19.76,7.97 19.05,6.88 17.98,6.04 16.91,5.2 15.68,4.77 14.3,4.77 12.89,4.77 11.63,5.21 10.54,6.08 9.45,6.95 8.75,8.07 8.44,9.44 7.33,9.7 6.42,10.27 5.7,11.17 c -0.72,0.9 -1.08,1.95 -1.08,3.1 z m 8.14,9.71 c 0,0.39 0.19,0.65 0.58,0.77 0.01,0 0.05,0 0.11,0.01 0.06,0.01 0.11,0.01 0.14,0.01 0.17,0 0.33,-0.05 0.49,-0.15 0.16,-0.1 0.27,-0.26 0.32,-0.48 l 2.25,-8.69 c 0.06,-0.24 0.04,-0.45 -0.07,-0.65 -0.11,-0.19 -0.27,-0.32 -0.5,-0.39 -0.17,-0.02 -0.26,-0.03 -0.26,-0.03 -0.16,0 -0.32,0.05 -0.47,0.15 -0.15,0.1 -0.26,0.25 -0.31,0.45 l -2.26,8.72 c -0.01,0.1 -0.02,0.19 -0.02,0.28 z m 4.16,-3.06 c 0,0.13 0.03,0.26 0.1,0.38 0.14,0.22 0.31,0.37 0.51,0.44 0.11,0.03 0.21,0.05 0.3,0.05 0.09,0 0.2,-0.02 0.32,-0.08 0.21,-0.09 0.35,-0.28 0.42,-0.57 l 1.44,-5.67 c 0.03,-0.14 0.05,-0.23 0.05,-0.27 0,-0.15 -0.05,-0.3 -0.16,-0.45 -0.11,-0.15 -0.26,-0.26 -0.46,-0.32 -0.17,-0.02 -0.26,-0.03 -0.26,-0.03 -0.17,0 -0.33,0.05 -0.47,0.15 -0.14,0.1 -0.24,0.25 -0.3,0.45 l -1.46,5.7 c 0,0.02 0,0.05 -0.01,0.11 -0.02,0.05 -0.02,0.08 -0.02,0.11 z"
   id="path1"
   style="fill:#ffffff" />
</svg>
