<?xml version="1.0" encoding="UTF-8" standalone="no"?>
<!-- Uploaded to: SVG Repo, www.svgrepo.com, Generator: SVG Repo Mixer Tools -->

<svg
   width="800px"
   height="800px"
   viewBox="0 0 24 24"
   fill="none"
   version="1.1"
   id="svg4"
   sodipodi:docname="cloudy-svgrepo-com.svg"
   inkscape:export-filename="cloudy-svgrepo-com_blue.png"
   inkscape:export-xdpi="2.8800001"
   inkscape:export-ydpi="2.8800001"
   inkscape:version="1.4.3 (0d15f75, 2025-12-25)"
   xmlns:inkscape="http://www.inkscape.org/namespaces/inkscape"
   xmlns:sodipodi="http://sodipodi.sourceforge.net/DTD/sodipodi-0.dtd"
   xmlns="http://www.w3.org/2000/svg"
   xmlns:svg="http://www.w3.org/2000/svg">
  <defs
     id="defs4" />
  <sodipodi:namedview
     id="namedview4"
     pagecolor="#ffffff"
     bordercolor="#000000"
     borderopacity="0.25"
     inkscape:showpageshadow="2"
     inkscape:pageopacity="0.0"
     inkscape:pagecheckerboard="0"
     inkscape:deskcolor="#d1d1d1"
     inkscape:zoom="1.06375"
     inkscape:cx="400"
     inkscape:cy="400"
     inkscape:window-width="1920"
     inkscape:window-height="1111"
     inkscape:window-x="-9"
     inkscape:window-y="-9"
     inkscape:window-maximized="1"
     inkscape:current-layer="svg4" />
  <path
     d="M10 15C10 11.6863 12.6863 9 16 9C19.3137 9 22 11.6863 22 15C22 17.2208 20.7934 18.9626 19 20"
     stroke="#333333"
     stroke-width="2"
     stroke-linecap="round"
     stroke-linejoin="round"
     id="path1"
     style="stroke:#00aaff;stroke-opacity:1;fill:none" />
  <path
     d="M9.30379 13.5C8.77702 13.1826 8.15983 13 7.5 13C5.567 13 4 14.567 4 16.5C4 18.433 5.567 20 7.5 20H19"
     stroke="#333333"
     stroke-width="2"
     stroke-linecap="round"
     stroke-linejoin="round"
     id="path2"
     style="stroke:#00aaff;stroke-opacity:1;fill:none" />
  <path
     d="M8 10C8 6.68629 10.6863 4 14 4C16.0075 4 17.7848 4.98593 18.874 6.5"
     stroke="#333333"
     stroke-width="2"
     stroke-linecap="round"
     stroke-linejoin="round"
     id="path3"
     style="stroke:#00aaff;stroke-opacity:1;fill:none" />
  <path
     d="M2 11.5C2 9.567 3.567 8 5.5 8C6.15983 8 6.77702 8.18259 7.30379 8.5"
     stroke="#333333"
     stroke-width="2"
     stroke-linecap="round"
     stroke-linejoin="round"
     id="path4"
     style="stroke:#00aaff;stroke-opacity:1;fill:none" />
</svg>
