<?xml version="1.0" encoding="UTF-8" standalone="no"?>
<svg
   height="24"
   viewBox="0 -960 960 960"
   width="24"
   fill="#1f1f1f"
   version="1.1"
   id="svg1"
   sodipodi:docname="straighten_24dp_1F1F1F_FILL0_wght400_GRAD0_opsz24.svg"
   xmlns:inkscape="http://www.inkscape.org/namespaces/inkscape"
   xmlns:sodipodi="http://sodipodi.sourceforge.net/DTD/sodipodi-0.dtd"
   xmlns:xlink="http://www.w3.org/1999/xlink"
   xmlns="http://www.w3.org/2000/svg"
   xmlns:svg="http://www.w3.org/2000/svg">
  <defs
     id="defs1">
    <linearGradient
       id="swatch1"
       inkscape:swatch="solid">
      <stop
         style="stop-color:#00aaff;stop-opacity:1;"
         offset="0"
         id="stop1" />
    </linearGradient>
    <linearGradient
       inkscape:collect="always"
       xlink:href="#swatch1"
       id="linearGradient1"
       x1="456.46817"
       y1="-480"
       x2="936.52838"
       y2="-480"
       gradientUnits="userSpaceOnUse"
       gradientTransform="matrix(0.83383828,0,0,0.85377944,103.62657,-70.185858)" />
  </defs>
  <sodipodi:namedview
     id="namedview1"
     pagecolor="#ffffff"
     bordercolor="#000000"
     borderopacity="0.25"
     inkscape:showpageshadow="2"
     inkscape:pageopacity="0.0"
     inkscape:pagecheckerboard="0"
     inkscape:deskcolor="#d1d1d1">
    <inkscape:page
       x="0"
       y="0"
       width="960"
       height="960"
       id="page2"
       margin="0"
       bleed="0" />
  </sodipodi:namedview>
  <path
     d="m 884.48958,-206.7713 q -0.003,28.17472 -19.59963,48.23665 -19.59704,20.06192 -47.11371,20.05928 l -266.82825,-0.0257 q -27.51666,-0.003 -47.11002,-20.06835 -19.59335,-20.0657 -19.59077,-48.24043 l 0.0502,-546.41884 q 0.003,-28.17472 19.59962,-48.23665 19.59705,-20.06193 47.11371,-20.05929 l 266.82825,0.0257 q 27.51666,0.003 47.11002,20.06836 19.59336,20.0657 19.59077,48.24042 z m -66.70707,-0.007 0.0502,-546.41885 -266.82825,-0.0257 -0.009,102.45353 133.41412,0.0128 -0.007,68.30235 -133.41412,-0.0128 -0.007,68.30235 133.41412,0.0128 -0.007,68.30235 -133.41412,-0.0128 -0.007,68.30235 133.41413,0.0128 -0.007,68.30235 -133.41413,-0.0128 -0.009,102.45354 z m -133.40472,-102.46597 0.007,-68.30235 z m 0.0125,-136.6047 0.007,-68.30237 z m 0.0125,-136.60472 0.007,-68.30235 z m -0.009,102.45353 z"
     id="path1"
     style="fill:url(#linearGradient1);stroke-width:0.84375" />
  <path
     fill-rule="evenodd"
     clip-rule="evenodd"
     d="m 239.84968,-601.36876 c -14.2653,0 -26.1591,7.56448 -34.4569,19.01103 -2.9097,4.04108 -9.6499,13.49878 -18.597,26.73339 -11.9021,17.60212 -27.8318,42.06601 -43.8314,69.36921 -15.9215,27.17265 -32.3485,57.8987 -44.916403,87.92152 -12.0336,28.74908 -22.6328,59.96998 -22.5876,91.62011 0.025,8.88206 1.0603,17.80875 2.4864,26.55534 2.3714,14.59161 7.2005,34.69003 17.2613,55.29806 10.143103,20.77175 26.003003,42.82647 50.563303,59.59164 24.8193,16.9419 56.0623,26.79309 94.0783,26.79309 38.016,0 69.263,-9.85119 94.0782,-26.79309 24.5645,-16.76517 40.4244,-38.81569 50.5674,-59.59041 10.065,-20.60752 14.89,-40.70594 17.2655,-55.29765 1.4261,-8.75714 2.4741,-17.70605 2.4864,-26.60121 0.017,-31.65054 -10.5541,-62.82301 -22.5877,-91.57669 -12.5678,-30.02293 -28.9948,-60.74888 -44.9163,-87.92122 -15.9996,-27.3031 -31.9335,-51.76699 -43.8355,-69.36962 -8.9472,-13.2341 -15.6873,-22.6918 -18.597,-26.73329 -8.2978,-11.44614 -20.1917,-19.01031 -34.461,-19.01021 z m 66.2588,236.18839 c -10.55,-25.20878 -24.9468,-52.34437 -39.849,-77.7736 -9.0622,-15.4645 -18.149,-30.02457 -26.4057,-42.79627 -8.2567,12.7717 -17.3435,27.33136 -26.4057,42.79575 -14.9023,25.42893 -29.299,52.56452 -39.849,77.7733 l -0.5959,1.42652 c -7.2621,17.33498 -15.8475,37.82772 -15.3379,56.97206 0.4932,15.14595 4.4674,30.77786 11.0637,44.28586 5.2688,10.78796 12.5226,20.29583 22.6411,27.20091 9.8553,6.72968 24.848,12.65804 48.4796,12.65804 23.6356,0 38.6283,-5.92836 48.4878,-12.65845 10.1143,-6.90508 17.3723,-16.41336 22.6411,-27.20173 6.5963,-13.50759 10.5705,-29.14042 11.0637,-44.28627 0.5137,-19.14106 -8.0717,-39.63206 -15.3338,-56.96448 z"
     fill="#0F0F0F"
     id="path2"
     style="fill:#00aaff;fill-opacity:1;stroke-width:41.5868" />
</svg>
