<?xml version="1.0" encoding="UTF-8" standalone="no"?>
<!-- Uploaded to: SVG Repo, www.svgrepo.com, Generator: SVG Repo Mixer Tools -->

<svg
   fill="#000000"
   width="800px"
   height="800px"
   viewBox="0 0 24 24"
   version="1.1"
   id="svg1"
   sodipodi:docname="sunset-down-svgrepo-com.svg"
   inkscape:export-filename="sunset-down-svgrepo-com.png"
   inkscape:export-xdpi="2.8800001"
   inkscape:export-ydpi="2.8800001"
   inkscape:version="1.4.3 (0d15f75, 2025-12-25)"
   xmlns:inkscape="http://www.inkscape.org/namespaces/inkscape"
   xmlns:sodipodi="http://sodipodi.sourceforge.net/DTD/sodipodi-0.dtd"
   xmlns:xlink="http://www.w3.org/1999/xlink"
   xmlns="http://www.w3.org/2000/svg"
   xmlns:svg="http://www.w3.org/2000/svg">
  <defs
     id="defs1">
    <linearGradient
       id="swatch1"
       inkscape:swatch="solid">
      <stop
         style="stop-color:#aaaaaa;stop-opacity:1;"
         offset="0"
         id="stop1" />
    </linearGradient>
    <linearGradient
       inkscape:collect="always"
       xlink:href="#swatch1"
       id="linearGradient1"
       x1="2"
       y1="12"
       x2="22"
       y2="12"
       gradientUnits="userSpaceOnUse" />
  </defs>
  <sodipodi:namedview
     id="namedview1"
     pagecolor="#ffffff"
     bordercolor="#000000"
     borderopacity="0.25"
     inkscape:showpageshadow="2"
     inkscape:pageopacity="0.0"
     inkscape:pagecheckerboard="0"
     inkscape:deskcolor="#d1d1d1"
     inkscape:zoom="1.06375"
     inkscape:cx="400"
     inkscape:cy="400"
     inkscape:window-width="1920"
     inkscape:window-height="1111"
     inkscape:window-x="-9"
     inkscape:window-y="-9"
     inkscape:window-maximized="1"
     inkscape:current-layer="svg1" />
  <path
     d="M7,15a5,5,0,0,1,10,0,1,1,0,0,1-2,0,3,3,0,0,0-6,0,1,1,0,0,1-2,0ZM17.293,8.293,16.586,9A1,1,0,1,0,18,10.414l.707-.707a1,1,0,0,0-1.414-1.414ZM22,15a1,1,0,0,0-1-1H20a1,1,0,0,0,0,2h1A1,1,0,0,0,22,15ZM4,14H3a1,1,0,0,0,0,2H4a1,1,0,0,0,0-2ZM6.707,8.293A1,1,0,0,0,5.293,9.707L6,10.414A1,1,0,1,0,7.414,9ZM4,18a1,1,0,0,0,1,1H19a1,1,0,0,0,0-2H5A1,1,0,0,0,4,18Zm13,4a1,1,0,0,0-1-1H8a1,1,0,0,0,0,2h8A1,1,0,0,0,17,22ZM12,1a1,1,0,0,0-1,1V5.586L9.707,4.293A1,1,0,0,0,8.293,5.707l3,3a1,1,0,0,0,1.414,0l3-3a1,1,0,1,0-1.414-1.414L13,5.586V2A1,1,0,0,0,12,1Z"
     id="path1"
     style="fill:url(#linearGradient1)" />
</svg>
