<?xml version="1.0" encoding="UTF-8" standalone="no"?>
<!-- Uploaded to: SVG Repo, www.svgrepo.com, Generator: SVG Repo Mixer Tools -->

<svg
   fill="#000000"
   height="24"
   width="24"
   version="1.1"
   id="Capa_1"
   viewBox="0 0 11.52 11.52"
   xml:space="preserve"
   sodipodi:docname="umbrella-svgrepo-com.svg"
   inkscape:export-filename="umbrella-svgrepo-com_orange.png"
   inkscape:export-xdpi="96"
   inkscape:export-ydpi="96"
   inkscape:version="1.4.3 (0d15f75, 2025-12-25)"
   xmlns:inkscape="http://www.inkscape.org/namespaces/inkscape"
   xmlns:sodipodi="http://sodipodi.sourceforge.net/DTD/sodipodi-0.dtd"
   xmlns:xlink="http://www.w3.org/1999/xlink"
   xmlns="http://www.w3.org/2000/svg"
   xmlns:svg="http://www.w3.org/2000/svg"><defs
   id="defs2"><linearGradient
     id="swatch36"
     inkscape:swatch="solid"><stop
       style="stop-color:#000000;stop-opacity:1;"
       offset="0"
       id="stop36" /></linearGradient><linearGradient
     id="swatch6"
     inkscape:swatch="solid"><stop
       style="stop-color:#ffaa00;stop-opacity:1;"
       offset="0"
       id="stop6" /></linearGradient><linearGradient
     id="swatch5"
     inkscape:swatch="solid"><stop
       style="stop-color:#00aaff;stop-opacity:1;"
       offset="0"
       id="stop5" /></linearGradient><linearGradient
     id="swatch3"
     inkscape:swatch="solid"><stop
       style="stop-color:#00aaff;stop-opacity:1;"
       offset="0"
       id="stop3" /></linearGradient><linearGradient
     inkscape:collect="always"
     xlink:href="#swatch6"
     id="linearGradient8"
     gradientUnits="userSpaceOnUse"
     x1="0"
     y1="192"
     x2="384"
     y2="192" /><linearGradient
     inkscape:collect="always"
     xlink:href="#swatch6"
     id="linearGradient34"
     gradientUnits="userSpaceOnUse"
     x1="0"
     y1="192"
     x2="384"
     y2="192" /><linearGradient
     inkscape:collect="always"
     xlink:href="#swatch6"
     id="linearGradient35"
     gradientUnits="userSpaceOnUse"
     x1="0"
     y1="192"
     x2="384"
     y2="192" /><linearGradient
     inkscape:collect="always"
     xlink:href="#swatch36"
     id="linearGradient36"
     x1="0"
     y1="192"
     x2="384"
     y2="192"
     gradientUnits="userSpaceOnUse" /></defs><sodipodi:namedview
   id="namedview2"
   pagecolor="#ffffff"
   bordercolor="#000000"
   borderopacity="0.25"
   inkscape:showpageshadow="2"
   inkscape:pageopacity="0.0"
   inkscape:pagecheckerboard="0"
   inkscape:deskcolor="#d1d1d1"
   showguides="true"
   inkscape:zoom="34.04"
   inkscape:cx="11.398355"
   inkscape:cy="11.706816"
   inkscape:window-width="1920"
   inkscape:window-height="1111"
   inkscape:window-x="-9"
   inkscape:window-y="-9"
   inkscape:window-maximized="1"
   inkscape:current-layer="g13" />

<g
   id="g13"
   transform="matrix(0.02834753,0,0,0.02834753,0.31727424,0.31727424)"
   style="stroke-width:0;stroke-dasharray:none;stroke:url(#linearGradient36);stroke-dashoffset:0;stroke-linejoin:bevel"><g
     id="g2"
     style="fill:url(#linearGradient35);stroke:url(#linearGradient36);stroke-width:0;stroke-dasharray:none;stroke-dashoffset:0;stroke-linejoin:bevel">
	<g
   id="g1"
   style="fill:url(#linearGradient34);stroke:url(#linearGradient36);stroke-width:0;stroke-dasharray:none;stroke-dashoffset:0;stroke-linejoin:bevel">
		<path
   d="M 208,32.72 V 16 C 208,7.168 200.832,0 192,0 183.168,0 176,7.168 176,16 V 32.72 C 77.592,40.88 0,123.52 0,224 v 16 c 0,8.832 7.168,16 16,16 8.832,0 16,-7.168 16,-16 0,-13.232 12.56,-24 28,-24 15.44,0 28,10.768 28,24 0,8.832 7.168,16 16,16 8.832,0 16,-7.168 16,-16 0,-13.232 12.56,-24 28,-24 15.44,0 28,10.768 28,24 v 104 c 0,4.408 -3.592,8 -8,8 -4.408,0 -8,-3.592 -8,-8 v -8 c 0,-8.832 -7.168,-16 -16,-16 -8.832,0 -16,7.168 -16,16 v 8 c 0,22.056 17.944,40 40,40 22.056,0 40,-17.944 40,-40 V 240 c 0,-13.232 12.56,-24 28,-24 15.44,0 28,10.768 28,24 0,8.832 7.168,16 16,16 8.832,0 16,-7.168 16,-16 0,-13.232 12.56,-24 28,-24 15.44,0 28,10.768 28,24 0,8.832 7.168,16 16,16 8.832,0 16,-7.168 16,-16 V 224 C 384,123.52 306.408,40.88 208,32.72 Z M 324,184 c -17.368,0 -33.032,6.92 -44,17.968 C 269.032,190.92 253.368,184 236,184 c -17.368,0 -33.032,6.92 -44,17.968 C 181.032,190.92 165.368,184 148,184 c -17.368,0 -33.032,6.92 -44,17.968 C 93.032,190.92 77.368,184 60,184 51.44,184 43.296,185.68 35.92,188.704 52.032,117.408 115.896,64 192,64 268.104,64 331.968,117.408 348.08,188.704 340.704,185.68 332.56,184 324,184 Z"
   id="path1"
   style="fill:url(#linearGradient8);stroke:url(#linearGradient36);stroke-width:0;stroke-dasharray:none;stroke-dashoffset:0;stroke-linejoin:bevel" />
	</g>
</g></g></svg>
