<?xml version="1.0" encoding="UTF-8" standalone="no"?>
<svg
   height="24px"
   viewBox="0 -960 960 960"
   width="24px"
   fill="#AAAAAA"
   version="1.1"
   id="svg1"
   sodipodi:docname="local_fire_department_24dp_AAAAAA_FILL0_wght400_GRAD0_opsz24.svg"
   inkscape:export-filename="calorie.png"
   inkscape:export-xdpi="96"
   inkscape:export-ydpi="96"
   inkscape:version="1.4.3 (0d15f75, 2025-12-25)"
   xmlns:inkscape="http://www.inkscape.org/namespaces/inkscape"
   xmlns:sodipodi="http://sodipodi.sourceforge.net/DTD/sodipodi-0.dtd"
   xmlns="http://www.w3.org/2000/svg"
   xmlns:svg="http://www.w3.org/2000/svg">
  <defs
     id="defs1" />
  <sodipodi:namedview
     id="namedview1"
     pagecolor="#ffffff"
     bordercolor="#000000"
     borderopacity="0.25"
     inkscape:showpageshadow="2"
     inkscape:pageopacity="0.0"
     inkscape:pagecheckerboard="0"
     inkscape:deskcolor="#d1d1d1"
     inkscape:zoom="35.458333"
     inkscape:cx="12"
     inkscape:cy="12"
     inkscape:window-width="1920"
     inkscape:window-height="1111"
     inkscape:window-x="-9"
     inkscape:window-y="-9"
     inkscape:window-maximized="1"
     inkscape:current-layer="svg1" />
  <path
     d="M240-400q0 52 21 98.5t60 81.5q-1-5-1-9v-9q0-32 12-60t35-51l113-111 113 111q23 23 35 51t12 60v9q0 4-1 9 39-35 60-81.5t21-98.5q0-50-18.5-94.5T648-574q-20 13-42 19.5t-45 6.5q-62 0-107.5-41T401-690q-39 33-69 68.5t-50.5 72Q261-513 250.5-475T240-400Zm240 52-57 56q-11 11-17 25t-6 29q0 32 23.5 55t56.5 23q33 0 56.5-23t23.5-55q0-16-6-29.5T537-292l-57-56Zm0-492v132q0 34 23.5 57t57.5 23q18 0 33.5-7.5T622-658l18-22q74 42 117 117t43 163q0 134-93 227T480-80q-134 0-227-93t-93-227q0-129 86.5-245T480-840Z"
     id="path1" />
</svg>
