<?xml version="1.0" encoding="UTF-8" standalone="no"?>
<!-- Created with Inkscape (http://www.inkscape.org/) -->

<svg
   width="30mm"
   height="30mm"
   viewBox="0 0 30 30"
   version="1.1"
   id="svg1"
   inkscape:version="1.4.3 (0d15f75, 2025-12-25)"
   sodipodi:docname="LogoPeP.svg"
   inkscape:export-filename="PeP.png"
   inkscape:export-xdpi="20.32"
   inkscape:export-ydpi="20.32"
   xmlns:inkscape="http://www.inkscape.org/namespaces/inkscape"
   xmlns:sodipodi="http://sodipodi.sourceforge.net/DTD/sodipodi-0.dtd"
   xmlns="http://www.w3.org/2000/svg"
   xmlns:svg="http://www.w3.org/2000/svg">
  <sodipodi:namedview
     id="namedview1"
     pagecolor="#5b5b5b"
     bordercolor="#000000"
     borderopacity="0.25"
     inkscape:showpageshadow="2"
     inkscape:pageopacity="0.0"
     inkscape:pagecheckerboard="0"
     inkscape:deskcolor="#d1d1d1"
     inkscape:document-units="mm"
     inkscape:zoom="6.064927"
     inkscape:cx="44.435819"
     inkscape:cy="52.185294"
     inkscape:window-width="1920"
     inkscape:window-height="1111"
     inkscape:window-x="-9"
     inkscape:window-y="-9"
     inkscape:window-maximized="1"
     inkscape:current-layer="layer1" />
  <defs
     id="defs1">
    <rect
       x="308.0004"
       y="354.16748"
       width="71.888748"
       height="69.250626"
       id="rect2" />
  </defs>
  <g
     inkscape:label="Livello 1"
     inkscape:groupmode="layer"
     id="layer1">
    <path
       style="font-size:39.8265px;font-family:'Segoe UI Symbol';-inkscape-font-specification:'Segoe UI Symbol, Normal';display:inline;fill:#00ffff;stroke:#ffffff;stroke-width:2.8272;stroke-dasharray:none;stroke-opacity:1;paint-order:stroke markers fill"
       d="m 19.239409,4.6855596 q 0.321878,0.8441504 0.353637,1.8094342 0.03744,0.9526083 -0.146662,1.9581609 -0.174922,1.0020542 -0.523322,2.0177073 -0.3484,1.015653 -0.779842,1.978895 -0.434941,0.954064 -0.926719,1.814197 -0.482602,0.856632 -0.940782,1.556818 -0.461678,0.691011 -0.850878,1.186232 -0.389198,0.495219 -0.631656,0.713785 -0.298899,-0.01215 -0.90066,-0.129507 Q 13.290764,17.473919 12.491893,17.25305 11.693023,17.032183 10.753414,16.717845 9.8103085,16.394331 8.8413903,15.975561 7.8781489,15.544119 6.9327969,15.021779 5.9931201,14.486763 5.1862591,13.859068 4.3758994,13.222197 3.7477294,12.484328 3.1287355,11.742959 2.8068574,10.898808 2.6599128,10.513434 2.5802329,10.028846 2.5097301,9.5407587 2.5309832,9.0176851 2.5614096,8.491112 2.697588,7.966255 2.8429408,7.4378992 3.1185338,6.9754876 3.3906291,6.5039 3.8069603,6.1349593 4.2289679,5.7533449 4.8253789,5.5259312 5.3667352,5.3195094 6.0077706,5.264253 6.6544835,5.196322 7.3803454,5.308402 8.1027082,5.4113069 8.8823705,5.6920474 9.6712076,5.9692887 10.493317,6.4440354 10.747388,5.6219953 11.152692,4.9209511 11.554498,4.2107327 12.046806,3.6551764 12.544792,3.0869469 13.105752,2.683877 13.663216,2.2716316 14.25045,2.0477169 q 0.605588,-0.2309132 1.174539,-0.2271542 0.565452,-0.00542 1.07328,0.1687828 0.504328,0.1650238 0.94621,0.4694649 0.438384,0.2952651 0.789831,0.6657189 0.351448,0.3704521 0.601964,0.7793908 0.259692,0.4054392 0.403137,0.7816373 z"
       id="text5-7"
       aria-label="❤" />
    <path
       style="font-size:39.8265px;font-family:'Segoe UI Symbol';-inkscape-font-specification:'Segoe UI Symbol, Normal';fill:#ff00ff;stroke:#ffffff;stroke-width:2.8272;stroke-dasharray:none;stroke-opacity:1;paint-order:stroke markers fill"
       d="m 27.435044,18.873655 q -0.130542,0.893955 -0.573445,1.752219 -0.431765,0.849967 -1.082763,1.638148 -0.641282,0.789601 -1.440655,1.506493 -0.799373,0.716894 -1.645696,1.347538 -0.844905,0.620929 -1.693635,1.132133 -0.839013,0.512622 -1.580426,0.900561 -0.739993,0.37822 -1.321248,0.620836 -0.581254,0.242616 -0.899504,0.315232 -0.255045,-0.156333 -0.723217,-0.552195 -0.468171,-0.395861 -1.057973,-0.978194 -0.589801,-0.582332 -1.256907,-1.31489 -0.665687,-0.742276 -1.307467,-1.580302 -0.630645,-0.846323 -1.201353,-1.763286 -0.559574,-0.925262 -0.958,-1.866688 -0.397009,-0.951144 -0.585704,-1.90164 -0.178979,-0.949078 -0.04844,-1.843032 0.05959,-0.40811 0.226291,-0.870048 0.176415,-0.460519 0.449997,-0.906849 0.283301,-0.444912 0.658093,-0.836767 0.38451,-0.390434 0.85058,-0.659794 0.46749,-0.279078 1.010865,-0.398212 0.554509,-0.127432 1.186108,-0.03519 0.573295,0.08372 1.159919,0.348015 0.59776,0.255999 1.176857,0.707755 0.580518,0.44204 1.124356,1.067281 0.553557,0.62666 1.039868,1.441982 0.622618,-0.593842 1.318284,-1.008309 0.697085,-0.424182 1.397781,-0.669205 0.71183,-0.253321 1.39812,-0.331737 0.687708,-0.08813 1.309589,0.0026 0.641315,0.09365 1.13623,0.374328 0.496334,0.27096 0.854781,0.670647 0.359865,0.38997 0.597237,0.871218 0.23879,0.471531 0.365018,0.966321 0.12623,0.494788 0.145573,0.97397 0.02906,0.4806 -0.02912,0.878994 z"
       id="text5"
       aria-label="❤" />
    <text
       xml:space="preserve"
       style="font-size:10.3631px;line-height:2.4057px;font-family:mio;-inkscape-font-specification:'mio, Normal';writing-mode:lr-tb;direction:ltr;fill:#00ffff;fill-opacity:1;stroke:#00ffff;stroke-width:1;stroke-linecap:round;stroke-linejoin:round;paint-order:stroke markers fill;stroke-dasharray:none;stroke-opacity:1"
       x="1.3643579"
       y="26.691088"
       id="text6"><tspan
         sodipodi:role="line"
         id="tspan5"
         style="fill:#00ffff;fill-opacity:1;stroke-width:1;stroke-dasharray:none;stroke:#00ffff;stroke-opacity:1"
         x="1.3643579"
         y="26.691088">P</tspan></text>
    <text
       xml:space="preserve"
       style="font-size:10.3631px;line-height:2.4057px;font-family:mio;-inkscape-font-specification:'mio, Normal';writing-mode:lr-tb;direction:ltr;fill:#ffffff;stroke:#ffffff;stroke-width:1;stroke-linecap:round;stroke-linejoin:round;paint-order:stroke markers fill;stroke-dasharray:none;stroke-opacity:1"
       x="22.325565"
       y="9.6358452"
       id="text6-7"><tspan
         sodipodi:role="line"
         id="tspan5-1"
         style="fill:#ffffff;stroke-width:1;stroke-dasharray:none;stroke:#ffffff;stroke-opacity:1"
         x="22.325565"
         y="9.6358452">P</tspan></text>
  </g>
</svg>
